<svg width="327" height="330" viewBox="0 0 327 330" fill="none" xmlns="http://www.w3.org/2000/svg">
<mask id="path-1-inside-1_2512_102" fill="white">
<path d="M0 122.909C0 119.646 2.64559 117 5.90909 117H321.021C324.285 117 326.93 119.646 326.93 122.909V324.091C326.93 327.354 324.285 330 321.021 330H168.419H5.90909C2.64559 330 0 327.354 0 324.091V122.909Z"/>
</mask>
<path d="M5.90909 125H321.021V109H5.90909V125ZM318.93 122.909V324.091H334.93V122.909H318.93ZM8 324.091V122.909H-8V324.091H8ZM321.021 322H168.419V338H321.021V322ZM168.419 322H5.90909V338H168.419V322ZM-8 324.091C-8 331.773 -1.77269 338 5.90909 338V322C7.06387 322 8 322.936 8 324.091H-8ZM318.93 324.091C318.93 322.936 319.866 322 321.021 322V338C328.703 338 334.93 331.773 334.93 324.091H318.93ZM321.021 125C319.866 125 318.93 124.064 318.93 122.909H334.93C334.93 115.227 328.703 109 321.021 109V125ZM5.90909 109C-1.77269 109 -8 115.227 -8 122.909H8C8 124.064 7.06387 125 5.90909 125V109Z" fill="black" mask="url(#path-1-inside-1_2512_102)"/>
<path fill-rule="evenodd" clip-rule="evenodd" d="M224.958 157.436C226.89 153.325 228.286 149.045 229.128 144.679C230.174 139.256 234.557 134.739 240.08 134.739L245.173 134.739C250.696 134.739 255.243 139.237 254.49 144.708C253.477 152.068 251.346 159.287 248.14 166.166C243.498 176.129 236.692 185.183 228.113 192.808C219.534 200.434 209.35 206.483 198.141 210.61C186.932 214.737 174.918 216.861 162.786 216.861C150.653 216.861 138.64 214.737 127.431 210.61C116.222 206.483 106.037 200.434 97.4582 192.808C88.8792 185.183 82.074 176.129 77.4311 166.166C74.2258 159.287 72.0944 152.068 71.0818 144.708C70.3291 139.237 74.8757 134.739 80.3986 134.739L85.4914 134.739C91.0143 134.739 95.3972 139.256 96.4431 144.679C97.2852 149.045 98.6817 153.325 100.614 157.436C103.996 164.632 108.953 171.171 115.201 176.678C121.45 182.185 128.869 186.554 137.033 189.535C145.198 192.515 153.949 194.05 162.786 194.05C171.623 194.05 180.374 192.515 188.538 189.535C196.703 186.554 204.121 182.185 210.37 176.678C216.619 171.171 221.576 164.632 224.958 157.436Z" fill="black"/>
<rect width="6.8435" height="37.8006" rx="2" transform="matrix(-0.866025 -0.5 -0.5 0.866025 225.251 3.42188)" fill="#FF4500"/>
<rect x="100.054" y="3.42188" width="6.8435" height="37.8006" rx="2" transform="rotate(-30 100.054 3.42188)" fill="#FF4500"/>
<path fill-rule="evenodd" clip-rule="evenodd" d="M224.958 82.2355C226.89 86.3468 228.286 90.6267 229.129 94.9931C230.175 100.416 234.557 104.933 240.08 104.933L245.173 104.933C250.696 104.933 255.243 100.435 254.49 94.9637C253.477 87.6039 251.346 80.3844 248.14 73.5058C243.498 63.5423 236.692 54.4893 228.113 46.8635C219.534 39.2378 209.35 33.1888 198.141 29.0617C186.932 24.9347 174.918 22.8106 162.786 22.8106C150.653 22.8106 138.64 24.9347 127.431 29.0617C116.222 33.1888 106.037 39.2378 97.4582 46.8636C88.8792 54.4893 82.074 63.5423 77.4311 73.5058C74.2258 80.3844 72.0944 87.6039 71.0818 94.9637C70.3291 100.435 74.8757 104.933 80.3986 104.933L85.4916 104.933C91.0144 104.933 95.3973 100.416 96.4433 94.9931C97.2854 90.6267 98.6819 86.3468 100.614 82.2355C103.996 75.0396 108.953 68.5013 115.202 62.9939C121.45 57.4864 128.869 53.1176 137.033 50.137C145.198 47.1564 153.949 45.6223 162.786 45.6223C171.623 45.6223 180.374 47.1564 188.538 50.137C196.703 53.1176 204.121 57.4864 210.37 62.9939C216.619 68.5013 221.576 75.0396 224.958 82.2355Z" fill="#FF4500"/>
<path d="M82.961 280.575C82.961 283.398 82.2424 285.862 80.8052 287.966C79.368 290.071 77.4175 291.713 74.9537 292.894C72.5413 294.074 69.8722 294.665 66.9465 294.665H41V240H68.1784C70.7448 240 72.9519 240.693 74.7997 242.079C76.6989 243.413 78.1361 245.159 79.1113 247.314C80.1379 249.419 80.6512 251.626 80.6512 253.936C80.6512 256.605 79.9582 259.12 78.5724 261.481C77.2378 263.791 75.313 265.51 72.7979 266.639C75.929 267.563 78.3927 269.283 80.1892 271.798C82.037 274.262 82.961 277.187 82.961 280.575ZM75.9546 279.343C75.9546 277.649 75.5697 276.084 74.7997 274.647C74.0811 273.209 73.0802 272.055 71.797 271.182C70.5652 270.309 69.128 269.873 67.4854 269.873H47.9293V288.659H66.9465C68.6403 288.659 70.1545 288.223 71.4891 287.35C72.8749 286.478 73.9528 285.349 74.7227 283.963C75.544 282.526 75.9546 280.986 75.9546 279.343ZM47.9293 246.005V264.253H65.3297C66.9722 264.253 68.4094 263.842 69.6412 263.021C70.9244 262.2 71.9254 261.096 72.644 259.71C73.4139 258.324 73.7988 256.81 73.7988 255.168C73.7988 253.422 73.4395 251.883 72.7209 250.548C72.0537 249.162 71.1041 248.059 69.8722 247.237C68.6917 246.416 67.3315 246.005 65.7916 246.005H47.9293Z" fill="black"/>
<path d="M143.238 288.505V294.665H106.128V240H142.545V246.159H113.057V263.868H138.696V269.642H113.057V288.505H143.238Z" fill="black"/>
<path d="M182.849 240H188.7L211.028 294.665H203.637L197.169 278.65H174.225L167.835 294.665H160.444L182.849 240ZM195.629 273.261L185.774 248.007L175.611 273.261H195.629Z" fill="black"/>
<path d="M279.071 294.665V252.935L261.054 285.041H256.82L238.727 252.935V294.665H231.797V240H239.112L258.899 275.494L278.763 240H286V294.665H279.071Z" fill="black"/>
<path d="M168.107 310.358V303.11H166.971V302.006H168.107V301.83C168.107 301.148 168.209 300.561 168.411 300.07C168.625 299.569 168.923 299.185 169.307 298.918C169.691 298.652 170.145 298.518 170.667 298.518C170.998 298.518 171.323 298.566 171.643 298.662C171.963 298.748 172.251 298.87 172.507 299.03L172.155 300.07C172.006 299.964 171.819 299.878 171.595 299.814C171.382 299.75 171.169 299.718 170.955 299.718C170.497 299.718 170.139 299.9 169.883 300.262C169.638 300.614 169.515 301.121 169.515 301.782V302.006H171.739V303.11H169.515V310.358H168.107ZM177.56 303.238C176.856 303.249 176.232 303.43 175.688 303.782C175.154 304.124 174.776 304.598 174.552 305.206V310.358H173.144V302.006H174.456V303.942C174.744 303.366 175.122 302.902 175.592 302.55C176.072 302.188 176.573 301.985 177.096 301.942C177.202 301.942 177.293 301.942 177.368 301.942C177.442 301.942 177.506 301.948 177.56 301.958V303.238ZM182.401 310.518C181.772 310.518 181.201 310.406 180.689 310.182C180.177 309.948 179.734 309.633 179.361 309.238C178.988 308.833 178.7 308.369 178.497 307.846C178.294 307.324 178.193 306.774 178.193 306.198C178.193 305.612 178.294 305.057 178.497 304.534C178.7 304.012 178.988 303.553 179.361 303.158C179.734 302.753 180.177 302.438 180.689 302.214C181.212 301.98 181.782 301.862 182.401 301.862C183.03 301.862 183.601 301.98 184.113 302.214C184.625 302.438 185.068 302.753 185.441 303.158C185.825 303.553 186.118 304.012 186.321 304.534C186.524 305.057 186.625 305.612 186.625 306.198C186.625 306.774 186.524 307.324 186.321 307.846C186.118 308.369 185.83 308.833 185.457 309.238C185.084 309.633 184.636 309.948 184.113 310.182C183.601 310.406 183.03 310.518 182.401 310.518ZM179.633 306.214C179.633 306.79 179.756 307.313 180.001 307.782C180.257 308.252 180.593 308.625 181.009 308.902C181.425 309.169 181.889 309.302 182.401 309.302C182.913 309.302 183.377 309.164 183.793 308.886C184.22 308.609 184.556 308.236 184.801 307.766C185.057 307.286 185.185 306.758 185.185 306.182C185.185 305.606 185.057 305.084 184.801 304.614C184.556 304.145 184.22 303.772 183.793 303.494C183.377 303.217 182.913 303.078 182.401 303.078C181.889 303.078 181.425 303.222 181.009 303.51C180.593 303.788 180.257 304.161 180.001 304.63C179.756 305.1 179.633 305.628 179.633 306.214ZM200.923 310.358H199.515V305.686C199.515 304.812 199.371 304.166 199.083 303.75C198.806 303.334 198.39 303.126 197.835 303.126C197.27 303.126 196.758 303.334 196.299 303.75C195.84 304.156 195.515 304.684 195.323 305.334V310.358H193.915V305.686C193.915 304.801 193.776 304.156 193.499 303.75C193.222 303.334 192.806 303.126 192.251 303.126C191.696 303.126 191.184 303.329 190.715 303.734C190.256 304.129 189.931 304.657 189.739 305.318V310.358H188.331V302.006H189.611V303.798C189.952 303.18 190.395 302.705 190.939 302.374C191.483 302.033 192.096 301.862 192.779 301.862C193.472 301.862 194.027 302.054 194.443 302.438C194.859 302.812 195.115 303.297 195.211 303.894C195.584 303.233 196.038 302.732 196.571 302.39C197.104 302.038 197.712 301.862 198.395 301.862C198.875 301.862 199.275 301.953 199.595 302.134C199.926 302.305 200.187 302.55 200.379 302.87C200.571 303.18 200.71 303.548 200.795 303.974C200.88 304.401 200.923 304.865 200.923 305.366V310.358ZM211.447 310.518C210.797 310.518 210.205 310.358 209.671 310.038C209.138 309.718 208.717 309.302 208.407 308.79V310.358H207.159V298.678H208.567V303.67C208.919 303.126 209.351 302.689 209.863 302.358C210.375 302.028 210.973 301.862 211.655 301.862C212.231 301.862 212.749 301.985 213.207 302.23C213.666 302.465 214.055 302.79 214.375 303.206C214.706 303.612 214.957 304.076 215.127 304.598C215.309 305.11 215.399 305.649 215.399 306.214C215.399 306.801 215.298 307.356 215.095 307.878C214.903 308.39 214.626 308.849 214.263 309.254C213.901 309.649 213.479 309.958 212.999 310.182C212.53 310.406 212.013 310.518 211.447 310.518ZM211.095 309.302C211.511 309.302 211.895 309.217 212.247 309.046C212.599 308.876 212.903 308.646 213.159 308.358C213.415 308.07 213.613 307.74 213.751 307.366C213.89 306.993 213.959 306.609 213.959 306.214C213.959 305.67 213.842 305.158 213.607 304.678C213.383 304.198 213.063 303.814 212.647 303.526C212.242 303.228 211.767 303.078 211.223 303.078C210.829 303.078 210.461 303.169 210.119 303.35C209.778 303.532 209.474 303.772 209.207 304.07C208.951 304.358 208.738 304.678 208.567 305.03V307.446C208.621 307.713 208.733 307.958 208.903 308.182C209.074 308.406 209.282 308.604 209.527 308.774C209.773 308.934 210.029 309.062 210.295 309.158C210.573 309.254 210.839 309.302 211.095 309.302ZM216.472 307.942C216.472 307.409 216.621 306.95 216.92 306.566C217.229 306.172 217.651 305.868 218.184 305.654C218.717 305.441 219.336 305.334 220.04 305.334C220.413 305.334 220.808 305.366 221.224 305.43C221.64 305.484 222.008 305.569 222.328 305.686V305.078C222.328 304.438 222.136 303.937 221.752 303.574C221.368 303.201 220.824 303.014 220.12 303.014C219.661 303.014 219.219 303.1 218.792 303.27C218.376 303.43 217.933 303.665 217.464 303.974L216.952 302.982C217.496 302.609 218.04 302.332 218.584 302.15C219.128 301.958 219.693 301.862 220.28 301.862C221.347 301.862 222.189 302.161 222.808 302.758C223.427 303.345 223.736 304.166 223.736 305.222V308.758C223.736 308.929 223.768 309.057 223.832 309.142C223.907 309.217 224.024 309.26 224.184 309.27V310.358C224.045 310.38 223.923 310.396 223.816 310.406C223.72 310.417 223.64 310.422 223.576 310.422C223.245 310.422 222.995 310.332 222.824 310.15C222.664 309.969 222.573 309.777 222.552 309.574L222.52 309.046C222.157 309.516 221.683 309.878 221.096 310.134C220.509 310.39 219.928 310.518 219.352 310.518C218.797 310.518 218.301 310.406 217.864 310.182C217.427 309.948 217.085 309.638 216.84 309.254C216.595 308.86 216.472 308.422 216.472 307.942ZM221.912 308.534C222.04 308.385 222.141 308.236 222.216 308.086C222.291 307.926 222.328 307.793 222.328 307.686V306.646C221.997 306.518 221.651 306.422 221.288 306.358C220.925 306.284 220.568 306.246 220.216 306.246C219.501 306.246 218.92 306.39 218.472 306.678C218.035 306.956 217.816 307.34 217.816 307.83C217.816 308.097 217.885 308.358 218.024 308.614C218.173 308.86 218.387 309.062 218.664 309.222C218.952 309.382 219.304 309.462 219.72 309.462C220.157 309.462 220.573 309.377 220.968 309.206C221.363 309.025 221.677 308.801 221.912 308.534ZM226.106 312.63C226.244 312.641 226.383 312.652 226.522 312.662C226.66 312.684 226.767 312.694 226.842 312.694C227.012 312.694 227.162 312.636 227.29 312.518C227.418 312.401 227.556 312.172 227.706 311.83C227.866 311.5 228.068 311.009 228.314 310.358L224.778 302.006H226.266L229.082 308.934L231.626 302.006H233.018L228.954 312.55C228.858 312.796 228.714 313.025 228.522 313.238C228.34 313.462 228.106 313.638 227.818 313.766C227.53 313.894 227.183 313.958 226.778 313.958C226.682 313.958 226.58 313.953 226.474 313.942C226.378 313.932 226.255 313.91 226.106 313.878V312.63ZM238.761 309.942C238.643 309.996 238.483 310.065 238.281 310.15C238.078 310.236 237.843 310.31 237.577 310.374C237.31 310.438 237.027 310.47 236.729 310.47C236.387 310.47 236.073 310.412 235.785 310.294C235.497 310.166 235.267 309.974 235.097 309.718C234.926 309.452 234.841 309.121 234.841 308.726V303.11H233.705V302.006H234.841V299.222H236.249V302.006H238.121V303.11H236.249V308.294C236.27 308.593 236.371 308.817 236.553 308.966C236.734 309.105 236.947 309.174 237.193 309.174C237.47 309.174 237.726 309.126 237.961 309.03C238.195 308.934 238.35 308.865 238.425 308.822L238.761 309.942ZM243.604 310.518C242.975 310.518 242.404 310.406 241.892 310.182C241.38 309.948 240.937 309.633 240.564 309.238C240.191 308.833 239.903 308.369 239.7 307.846C239.497 307.324 239.396 306.774 239.396 306.198C239.396 305.612 239.497 305.057 239.7 304.534C239.903 304.012 240.191 303.553 240.564 303.158C240.937 302.753 241.38 302.438 241.892 302.214C242.415 301.98 242.985 301.862 243.604 301.862C244.233 301.862 244.804 301.98 245.316 302.214C245.828 302.438 246.271 302.753 246.644 303.158C247.028 303.553 247.321 304.012 247.524 304.534C247.727 305.057 247.828 305.612 247.828 306.198C247.828 306.774 247.727 307.324 247.524 307.846C247.321 308.369 247.033 308.833 246.66 309.238C246.287 309.633 245.839 309.948 245.316 310.182C244.804 310.406 244.233 310.518 243.604 310.518ZM240.836 306.214C240.836 306.79 240.959 307.313 241.204 307.782C241.46 308.252 241.796 308.625 242.212 308.902C242.628 309.169 243.092 309.302 243.604 309.302C244.116 309.302 244.58 309.164 244.996 308.886C245.423 308.609 245.759 308.236 246.004 307.766C246.26 307.286 246.388 306.758 246.388 306.182C246.388 305.606 246.26 305.084 246.004 304.614C245.759 304.145 245.423 303.772 244.996 303.494C244.58 303.217 244.116 303.078 243.604 303.078C243.092 303.078 242.628 303.222 242.212 303.51C241.796 303.788 241.46 304.161 241.204 304.63C240.959 305.1 240.836 305.628 240.836 306.214ZM256.782 310.358H255.374V305.686C255.374 304.801 255.236 304.156 254.958 303.75C254.692 303.334 254.281 303.126 253.726 303.126C253.342 303.126 252.958 303.222 252.574 303.414C252.201 303.606 251.865 303.868 251.566 304.198C251.278 304.518 251.07 304.892 250.942 305.318V310.358H249.534V302.006H250.814V303.798C251.038 303.404 251.326 303.062 251.678 302.774C252.03 302.486 252.43 302.262 252.878 302.102C253.326 301.942 253.796 301.862 254.286 301.862C254.766 301.862 255.166 301.953 255.486 302.134C255.817 302.305 256.073 302.55 256.254 302.87C256.446 303.18 256.58 303.548 256.654 303.974C256.74 304.401 256.782 304.865 256.782 305.366V310.358ZM258.86 310.358V308.566H260.044V310.358H258.86ZM265.542 310.518C264.912 310.518 264.342 310.406 263.83 310.182C263.318 309.948 262.875 309.633 262.502 309.238C262.128 308.833 261.84 308.369 261.638 307.846C261.435 307.324 261.334 306.774 261.334 306.198C261.334 305.612 261.435 305.057 261.638 304.534C261.84 304.012 262.128 303.553 262.502 303.158C262.875 302.753 263.318 302.438 263.83 302.214C264.352 301.98 264.923 301.862 265.542 301.862C266.171 301.862 266.742 301.98 267.254 302.214C267.766 302.438 268.208 302.753 268.582 303.158C268.966 303.553 269.259 304.012 269.462 304.534C269.664 305.057 269.766 305.612 269.766 306.198C269.766 306.774 269.664 307.324 269.462 307.846C269.259 308.369 268.971 308.833 268.598 309.238C268.224 309.633 267.776 309.948 267.254 310.182C266.742 310.406 266.171 310.518 265.542 310.518ZM262.774 306.214C262.774 306.79 262.896 307.313 263.142 307.782C263.398 308.252 263.734 308.625 264.15 308.902C264.566 309.169 265.03 309.302 265.542 309.302C266.054 309.302 266.518 309.164 266.934 308.886C267.36 308.609 267.696 308.236 267.942 307.766C268.198 307.286 268.326 306.758 268.326 306.182C268.326 305.606 268.198 305.084 267.942 304.614C267.696 304.145 267.36 303.772 266.934 303.494C266.518 303.217 266.054 303.078 265.542 303.078C265.03 303.078 264.566 303.222 264.15 303.51C263.734 303.788 263.398 304.161 263.142 304.63C262.896 305.1 262.774 305.628 262.774 306.214ZM275.888 303.238C275.184 303.249 274.56 303.43 274.016 303.782C273.482 304.124 273.104 304.598 272.88 305.206V310.358H271.472V302.006H272.784V303.942C273.072 303.366 273.45 302.902 273.92 302.55C274.4 302.188 274.901 301.985 275.424 301.942C275.53 301.942 275.621 301.942 275.696 301.942C275.77 301.942 275.834 301.948 275.888 301.958V303.238ZM280.456 310.454C279.891 310.454 279.368 310.342 278.888 310.118C278.419 309.884 278.013 309.569 277.672 309.174C277.331 308.769 277.064 308.31 276.872 307.798C276.691 307.286 276.6 306.753 276.6 306.198C276.6 305.612 276.691 305.057 276.872 304.534C277.064 304.012 277.331 303.553 277.672 303.158C278.024 302.753 278.435 302.438 278.904 302.214C279.373 301.98 279.896 301.862 280.472 301.862C281.165 301.862 281.768 302.033 282.28 302.374C282.803 302.716 283.24 303.148 283.592 303.67V302.006H284.84V310.262C284.84 311.052 284.648 311.718 284.264 312.262C283.891 312.806 283.379 313.217 282.728 313.494C282.088 313.782 281.373 313.926 280.584 313.926C279.645 313.926 278.877 313.761 278.28 313.43C277.683 313.1 277.187 312.652 276.792 312.086L277.608 311.366C277.939 311.857 278.365 312.225 278.888 312.47C279.421 312.716 279.987 312.838 280.584 312.838C281.096 312.838 281.565 312.742 281.992 312.55C282.429 312.369 282.776 312.086 283.032 311.702C283.299 311.318 283.432 310.838 283.432 310.262V308.79C283.123 309.302 282.696 309.708 282.152 310.006C281.619 310.305 281.053 310.454 280.456 310.454ZM280.888 309.302C281.187 309.302 281.475 309.249 281.752 309.142C282.029 309.036 282.285 308.897 282.52 308.726C282.755 308.545 282.952 308.342 283.112 308.118C283.272 307.894 283.379 307.665 283.432 307.43V305.03C283.283 304.646 283.069 304.31 282.792 304.022C282.515 303.724 282.2 303.494 281.848 303.334C281.496 303.164 281.133 303.078 280.76 303.078C280.333 303.078 279.949 303.169 279.608 303.35C279.277 303.532 278.995 303.777 278.76 304.086C278.525 304.385 278.344 304.721 278.216 305.094C278.088 305.468 278.024 305.846 278.024 306.23C278.024 306.646 278.099 307.041 278.248 307.414C278.397 307.777 278.6 308.102 278.856 308.39C279.112 308.678 279.416 308.902 279.768 309.062C280.12 309.222 280.493 309.302 280.888 309.302Z" fill="black"/>
</svg>
