<svg width="1000" height="468" viewBox="0 0 1000 468" fill="none" xmlns="http://www.w3.org/2000/svg">
<g id="Simplified" clip-path="url(#clip0_2999_441)">
<g id="Group 22113">
<g id="Group 22107">
<g id="Frame 22103">
<path id="bayt" d="M289 347.8C289 357.458 286.585 365.886 281.756 373.085C276.927 380.284 270.372 385.903 262.094 389.941C253.987 393.98 245.018 395.999 235.187 395.999H148V208.999H239.327C247.95 208.999 255.367 211.369 261.576 216.11C267.958 220.676 272.787 226.646 276.064 234.02C279.514 241.219 281.239 248.769 281.239 256.671C281.239 265.801 278.91 274.405 274.253 282.482C269.769 290.384 263.301 296.266 254.85 300.129C265.371 303.289 273.65 309.171 279.686 317.775C285.895 326.203 289 336.212 289 347.8ZM265.457 343.586C265.457 337.792 264.163 332.437 261.576 327.52C259.161 322.604 255.798 318.653 251.486 315.668C247.347 312.683 242.517 311.191 236.998 311.191H171.284V375.455H235.187C240.879 375.455 245.967 373.963 250.451 370.978C255.108 367.993 258.73 364.13 261.317 359.389C264.077 354.473 265.457 349.205 265.457 343.586ZM171.284 229.543V291.964H229.754C235.273 291.964 240.103 290.559 244.242 287.75C248.554 284.94 251.917 281.165 254.332 276.424C256.919 271.684 258.213 266.504 258.213 260.885C258.213 254.915 257.006 249.647 254.591 245.082C252.349 240.341 249.158 236.566 245.018 233.757C241.051 230.947 236.481 229.543 231.306 229.543H171.284Z" fill="#f5efe8"/>
<path id="bayt_2" d="M481.408 374.929V395.999H357V208.999H479.085V230.069H380.23V290.647H466.18V310.4H380.23V374.929H481.408Z" fill="#f5efe8"/>
<path id="bayt_3" fill-rule="evenodd" clip-rule="evenodd" d="M646.496 208.999L722.126 395.847H696.421L635.332 236.807L574.242 395.847H549.408L625.039 208.999H646.496Z" fill="#f5efe8"/>
<path id="Exclude" d="M948.606 395.999V253.247L888.208 363.076H874.012L813.357 253.247V395.999H790.127V208.999H814.647L880.981 330.417L947.573 208.999H971.835V395.999H948.606Z" fill="#f5efe8"/>
</g>
<path id="bayt_4" d="M679.96 442.49V424.37H677.12V421.61H679.96V421.17C679.96 419.464 680.213 417.997 680.72 416.77C681.253 415.517 682 414.557 682.96 413.89C683.92 413.224 685.053 412.89 686.36 412.89C687.187 412.89 688 413.01 688.8 413.25C689.6 413.464 690.32 413.77 690.96 414.17L690.08 416.77C689.707 416.504 689.24 416.29 688.68 416.13C688.147 415.97 687.613 415.89 687.08 415.89C685.933 415.89 685.04 416.344 684.4 417.25C683.787 418.13 683.48 419.397 683.48 421.05V421.61H689.04V424.37H683.48V442.49H679.96ZM703.591 424.69C701.831 424.717 700.271 425.17 698.911 426.05C697.578 426.904 696.631 428.09 696.071 429.61V442.49H692.551V421.61H695.831V426.45C696.551 425.01 697.498 423.85 698.671 422.97C699.871 422.064 701.124 421.557 702.431 421.45C702.698 421.45 702.924 421.45 703.111 421.45C703.298 421.45 703.458 421.464 703.591 421.49V424.69ZM715.694 442.89C714.121 442.89 712.694 442.61 711.414 442.05C710.134 441.464 709.028 440.677 708.094 439.69C707.161 438.677 706.441 437.517 705.934 436.21C705.428 434.904 705.174 433.53 705.174 432.09C705.174 430.624 705.428 429.237 705.934 427.93C706.441 426.624 707.161 425.477 708.094 424.49C709.028 423.477 710.134 422.69 711.414 422.13C712.721 421.544 714.148 421.25 715.694 421.25C717.268 421.25 718.694 421.544 719.974 422.13C721.254 422.69 722.361 423.477 723.294 424.49C724.254 425.477 724.988 426.624 725.494 427.93C726.001 429.237 726.254 430.624 726.254 432.09C726.254 433.53 726.001 434.904 725.494 436.21C724.988 437.517 724.268 438.677 723.334 439.69C722.401 440.677 721.281 441.464 719.974 442.05C718.694 442.61 717.268 442.89 715.694 442.89ZM708.774 432.13C708.774 433.57 709.081 434.877 709.694 436.05C710.334 437.224 711.174 438.157 712.214 438.85C713.254 439.517 714.414 439.85 715.694 439.85C716.974 439.85 718.134 439.504 719.174 438.81C720.241 438.117 721.081 437.184 721.694 436.01C722.334 434.81 722.654 433.49 722.654 432.05C722.654 430.61 722.334 429.304 721.694 428.13C721.081 426.957 720.241 426.024 719.174 425.33C718.134 424.637 716.974 424.29 715.694 424.29C714.414 424.29 713.254 424.65 712.214 425.37C711.174 426.064 710.334 426.997 709.694 428.17C709.081 429.344 708.774 430.664 708.774 432.13ZM762 442.49H758.48V430.81C758.48 428.624 758.12 427.01 757.4 425.97C756.706 424.93 755.666 424.41 754.28 424.41C752.866 424.41 751.586 424.93 750.44 425.97C749.293 426.984 748.48 428.304 748 429.93V442.49H744.48V430.81C744.48 428.597 744.133 426.984 743.44 425.97C742.746 424.93 741.706 424.41 740.32 424.41C738.933 424.41 737.653 424.917 736.48 425.93C735.333 426.917 734.52 428.237 734.04 429.89V442.49H730.52V421.61H733.72V426.09C734.573 424.544 735.68 423.357 737.04 422.53C738.4 421.677 739.933 421.25 741.64 421.25C743.373 421.25 744.76 421.73 745.8 422.69C746.84 423.624 747.48 424.837 747.72 426.33C748.653 424.677 749.786 423.424 751.12 422.57C752.453 421.69 753.973 421.25 755.68 421.25C756.88 421.25 757.88 421.477 758.68 421.93C759.506 422.357 760.16 422.97 760.64 423.77C761.12 424.544 761.466 425.464 761.68 426.53C761.893 427.597 762 428.757 762 430.01V442.49ZM788.31 442.89C786.683 442.89 785.203 442.49 783.87 441.69C782.537 440.89 781.483 439.85 780.71 438.57V442.49H777.59V413.29H781.11V425.77C781.99 424.41 783.07 423.317 784.35 422.49C785.63 421.664 787.123 421.25 788.83 421.25C790.27 421.25 791.563 421.557 792.71 422.17C793.857 422.757 794.83 423.57 795.63 424.61C796.457 425.624 797.083 426.784 797.51 428.09C797.963 429.37 798.19 430.717 798.19 432.13C798.19 433.597 797.937 434.984 797.43 436.29C796.95 437.57 796.257 438.717 795.35 439.73C794.443 440.717 793.39 441.49 792.19 442.05C791.017 442.61 789.723 442.89 788.31 442.89ZM787.43 439.85C788.47 439.85 789.43 439.637 790.31 439.21C791.19 438.784 791.95 438.21 792.59 437.49C793.23 436.77 793.723 435.944 794.07 435.01C794.417 434.077 794.59 433.117 794.59 432.13C794.59 430.77 794.297 429.49 793.71 428.29C793.15 427.09 792.35 426.13 791.31 425.41C790.297 424.664 789.11 424.29 787.75 424.29C786.763 424.29 785.843 424.517 784.99 424.97C784.137 425.424 783.377 426.024 782.71 426.77C782.07 427.49 781.537 428.29 781.11 429.17V435.21C781.243 435.877 781.523 436.49 781.95 437.05C782.377 437.61 782.897 438.104 783.51 438.53C784.123 438.93 784.763 439.25 785.43 439.49C786.123 439.73 786.79 439.85 787.43 439.85ZM800.872 436.45C800.872 435.117 801.245 433.97 801.992 433.01C802.765 432.024 803.819 431.264 805.152 430.73C806.485 430.197 808.032 429.93 809.792 429.93C810.725 429.93 811.712 430.01 812.752 430.17C813.792 430.304 814.712 430.517 815.512 430.81V429.29C815.512 427.69 815.032 426.437 814.072 425.53C813.112 424.597 811.752 424.13 809.992 424.13C808.845 424.13 807.739 424.344 806.672 424.77C805.632 425.17 804.525 425.757 803.352 426.53L802.072 424.05C803.432 423.117 804.792 422.424 806.152 421.97C807.512 421.49 808.925 421.25 810.392 421.25C813.059 421.25 815.165 421.997 816.712 423.49C818.259 424.957 819.032 427.01 819.032 429.65V438.49C819.032 438.917 819.112 439.237 819.272 439.45C819.459 439.637 819.752 439.744 820.152 439.77V442.49C819.805 442.544 819.499 442.584 819.232 442.61C818.992 442.637 818.792 442.65 818.632 442.65C817.805 442.65 817.179 442.424 816.752 441.97C816.352 441.517 816.125 441.037 816.072 440.53L815.992 439.21C815.085 440.384 813.899 441.29 812.432 441.93C810.965 442.57 809.512 442.89 808.072 442.89C806.685 442.89 805.445 442.61 804.352 442.05C803.259 441.464 802.405 440.69 801.792 439.73C801.179 438.744 800.872 437.65 800.872 436.45ZM814.472 437.93C814.792 437.557 815.045 437.184 815.232 436.81C815.419 436.41 815.512 436.077 815.512 435.81V433.21C814.685 432.89 813.819 432.65 812.912 432.49C812.005 432.304 811.112 432.21 810.232 432.21C808.445 432.21 806.992 432.57 805.872 433.29C804.779 433.984 804.232 434.944 804.232 436.17C804.232 436.837 804.405 437.49 804.752 438.13C805.125 438.744 805.659 439.25 806.352 439.65C807.072 440.05 807.952 440.25 808.992 440.25C810.085 440.25 811.125 440.037 812.112 439.61C813.099 439.157 813.885 438.597 814.472 437.93ZM824.956 448.17C825.303 448.197 825.65 448.224 825.996 448.25C826.343 448.304 826.61 448.33 826.796 448.33C827.223 448.33 827.596 448.184 827.916 447.89C828.236 447.597 828.583 447.024 828.956 446.17C829.356 445.344 829.863 444.117 830.476 442.49L821.636 421.61H825.356L832.396 438.93L838.756 421.61H842.236L832.076 447.97C831.836 448.584 831.476 449.157 830.996 449.69C830.543 450.25 829.956 450.69 829.236 451.01C828.516 451.33 827.65 451.49 826.636 451.49C826.396 451.49 826.143 451.477 825.876 451.45C825.636 451.424 825.33 451.37 824.956 451.29V448.17ZM856.593 441.45C856.3 441.584 855.9 441.757 855.393 441.97C854.886 442.184 854.3 442.37 853.633 442.53C852.966 442.69 852.26 442.77 851.513 442.77C850.66 442.77 849.873 442.624 849.153 442.33C848.433 442.01 847.86 441.53 847.433 440.89C847.006 440.224 846.793 439.397 846.793 438.41V424.37H843.953V421.61H846.793V414.65H850.313V421.61H854.993V424.37H850.313V437.33C850.366 438.077 850.62 438.637 851.073 439.01C851.526 439.357 852.06 439.53 852.673 439.53C853.366 439.53 854.006 439.41 854.593 439.17C855.18 438.93 855.566 438.757 855.753 438.65L856.593 441.45ZM868.702 442.89C867.129 442.89 865.702 442.61 864.422 442.05C863.142 441.464 862.036 440.677 861.102 439.69C860.169 438.677 859.449 437.517 858.942 436.21C858.436 434.904 858.182 433.53 858.182 432.09C858.182 430.624 858.436 429.237 858.942 427.93C859.449 426.624 860.169 425.477 861.102 424.49C862.036 423.477 863.142 422.69 864.422 422.13C865.729 421.544 867.156 421.25 868.702 421.25C870.276 421.25 871.702 421.544 872.982 422.13C874.262 422.69 875.369 423.477 876.302 424.49C877.262 425.477 877.996 426.624 878.502 427.93C879.009 429.237 879.262 430.624 879.262 432.09C879.262 433.53 879.009 434.904 878.502 436.21C877.996 437.517 877.276 438.677 876.342 439.69C875.409 440.677 874.289 441.464 872.982 442.05C871.702 442.61 870.276 442.89 868.702 442.89ZM861.782 432.13C861.782 433.57 862.089 434.877 862.702 436.05C863.342 437.224 864.182 438.157 865.222 438.85C866.262 439.517 867.422 439.85 868.702 439.85C869.982 439.85 871.142 439.504 872.182 438.81C873.249 438.117 874.089 437.184 874.702 436.01C875.342 434.81 875.662 433.49 875.662 432.05C875.662 430.61 875.342 429.304 874.702 428.13C874.089 426.957 873.249 426.024 872.182 425.33C871.142 424.637 869.982 424.29 868.702 424.29C867.422 424.29 866.262 424.65 865.222 425.37C864.182 426.064 863.342 426.997 862.702 428.17C862.089 429.344 861.782 430.664 861.782 432.13ZM901.648 442.49H898.128V430.81C898.128 428.597 897.781 426.984 897.088 425.97C896.421 424.93 895.394 424.41 894.008 424.41C893.048 424.41 892.088 424.65 891.128 425.13C890.194 425.61 889.354 426.264 888.608 427.09C887.888 427.89 887.368 428.824 887.048 429.89V442.49H883.528V421.61H886.728V426.09C887.288 425.104 888.008 424.25 888.888 423.53C889.768 422.81 890.768 422.25 891.888 421.85C893.008 421.45 894.181 421.25 895.408 421.25C896.608 421.25 897.608 421.477 898.408 421.93C899.234 422.357 899.874 422.97 900.328 423.77C900.808 424.544 901.141 425.464 901.328 426.53C901.541 427.597 901.648 428.757 901.648 430.01V442.49ZM906.841 442.49V438.01H909.801V442.49H906.841ZM923.546 442.89C921.973 442.89 920.546 442.61 919.266 442.05C917.986 441.464 916.879 440.677 915.946 439.69C915.013 438.677 914.293 437.517 913.786 436.21C913.279 434.904 913.026 433.53 913.026 432.09C913.026 430.624 913.279 429.237 913.786 427.93C914.293 426.624 915.013 425.477 915.946 424.49C916.879 423.477 917.986 422.69 919.266 422.13C920.573 421.544 921.999 421.25 923.546 421.25C925.119 421.25 926.546 421.544 927.826 422.13C929.106 422.69 930.213 423.477 931.146 424.49C932.106 425.477 932.839 426.624 933.346 427.93C933.853 429.237 934.106 430.624 934.106 432.09C934.106 433.53 933.853 434.904 933.346 436.21C932.839 437.517 932.119 438.677 931.186 439.69C930.253 440.677 929.133 441.464 927.826 442.05C926.546 442.61 925.119 442.89 923.546 442.89ZM916.626 432.13C916.626 433.57 916.933 434.877 917.546 436.05C918.186 437.224 919.026 438.157 920.066 438.85C921.106 439.517 922.266 439.85 923.546 439.85C924.826 439.85 925.986 439.504 927.026 438.81C928.093 438.117 928.933 437.184 929.546 436.01C930.186 434.81 930.506 433.49 930.506 432.05C930.506 430.61 930.186 429.304 929.546 428.13C928.933 426.957 928.093 426.024 927.026 425.33C925.986 424.637 924.826 424.29 923.546 424.29C922.266 424.29 921.106 424.65 920.066 425.37C919.026 426.064 918.186 426.997 917.546 428.17C916.933 429.344 916.626 430.664 916.626 432.13ZM949.411 424.69C947.651 424.717 946.091 425.17 944.731 426.05C943.398 426.904 942.451 428.09 941.891 429.61V442.49H938.371V421.61H941.651V426.45C942.371 425.01 943.318 423.85 944.491 422.97C945.691 422.064 946.945 421.557 948.251 421.45C948.518 421.45 948.745 421.45 948.931 421.45C949.118 421.45 949.278 421.464 949.411 421.49V424.69ZM960.832 442.73C959.419 442.73 958.112 442.45 956.912 441.89C955.739 441.304 954.725 440.517 953.872 439.53C953.019 438.517 952.352 437.37 951.872 436.09C951.419 434.81 951.192 433.477 951.192 432.09C951.192 430.624 951.419 429.237 951.872 427.93C952.352 426.624 953.019 425.477 953.872 424.49C954.752 423.477 955.779 422.69 956.952 422.13C958.125 421.544 959.432 421.25 960.872 421.25C962.605 421.25 964.112 421.677 965.392 422.53C966.699 423.384 967.792 424.464 968.672 425.77V421.61H971.792V442.25C971.792 444.224 971.312 445.89 970.352 447.25C969.419 448.61 968.139 449.637 966.512 450.33C964.912 451.05 963.125 451.41 961.152 451.41C958.805 451.41 956.885 450.997 955.392 450.17C953.899 449.344 952.659 448.224 951.672 446.81L953.712 445.01C954.539 446.237 955.605 447.157 956.912 447.77C958.245 448.384 959.659 448.69 961.152 448.69C962.432 448.69 963.605 448.45 964.672 447.97C965.765 447.517 966.632 446.81 967.272 445.85C967.939 444.89 968.272 443.69 968.272 442.25V438.57C967.499 439.85 966.432 440.864 965.072 441.61C963.739 442.357 962.325 442.73 960.832 442.73ZM961.912 439.85C962.659 439.85 963.379 439.717 964.072 439.45C964.765 439.184 965.405 438.837 965.992 438.41C966.579 437.957 967.072 437.45 967.472 436.89C967.872 436.33 968.139 435.757 968.272 435.17V429.17C967.899 428.21 967.365 427.37 966.672 426.65C965.979 425.904 965.192 425.33 964.312 424.93C963.432 424.504 962.525 424.29 961.592 424.29C960.525 424.29 959.565 424.517 958.712 424.97C957.885 425.424 957.179 426.037 956.592 426.81C956.005 427.557 955.552 428.397 955.232 429.33C954.912 430.264 954.752 431.21 954.752 432.17C954.752 433.21 954.939 434.197 955.312 435.13C955.685 436.037 956.192 436.85 956.832 437.57C957.472 438.29 958.232 438.85 959.112 439.25C959.992 439.65 960.925 439.85 961.912 439.85Z" fill="#f5efe8"/>
</g>
<g id="Group 22109">
<path id="Vector" d="M67.1729 391.134C44.1277 334.861 41.4577 271.045 61.4978 211.665C125.634 29.3944 365.111 4.08284 467.371 162.341C466.283 161.037 464.574 158.841 460.152 153.913C446.557 138.878 430.322 125.376 412.094 114.6C223.484 10.3574 8.17611 187.115 67.1702 391.117C67.1702 391.117 67.1679 391.125 67.1741 391.131L67.1729 391.134Z" fill="#f5efe8"/>
<path id="Vector_2" d="M47.4165 351.635C52.1578 366.271 58.2425 380.298 65.6271 393.633C30.5283 343.009 14.238 280.423 21.5924 217.493C46.2475 26.5604 274.039 -47.7576 407.003 83.8509C405.663 82.8095 403.516 81.0412 398.134 77.1807C348.74 41.1025 281.573 30.6283 222.154 44.5471C82.6289 76.7362 4.83725 219.955 47.4165 351.635Z" fill="#FF4500"/>
</g>
</g>
</g>
<defs>
<clipPath id="clip0_2999_441">
<rect width="1000" height="467" fill="white" transform="translate(0 0.490234)"/>
</clipPath>
</defs>
</svg>
